%TF.GenerationSoftware,KiCad,Pcbnew,9.0.2*%
%TF.CreationDate,2025-07-13T19:28:41+02:00*%
%TF.ProjectId,AHD-Switch,4148442d-5377-4697-9463-682e6b696361,rev?*%
%TF.SameCoordinates,Original*%
%TF.FileFunction,Legend,Top*%
%TF.FilePolarity,Positive*%
%FSLAX46Y46*%
G04 Gerber Fmt 4.6, Leading zero omitted, Abs format (unit mm)*
G04 Created by KiCad (PCBNEW 9.0.2) date 2025-07-13 19:28:41*
%MOMM*%
%LPD*%
G01*
G04 APERTURE LIST*
G04 Aperture macros list*
%AMRoundRect*
0 Rectangle with rounded corners*
0 $1 Rounding radius*
0 $2 $3 $4 $5 $6 $7 $8 $9 X,Y pos of 4 corners*
0 Add a 4 corners polygon primitive as box body*
4,1,4,$2,$3,$4,$5,$6,$7,$8,$9,$2,$3,0*
0 Add four circle primitives for the rounded corners*
1,1,$1+$1,$2,$3*
1,1,$1+$1,$4,$5*
1,1,$1+$1,$6,$7*
1,1,$1+$1,$8,$9*
0 Add four rect primitives between the rounded corners*
20,1,$1+$1,$2,$3,$4,$5,0*
20,1,$1+$1,$4,$5,$6,$7,0*
20,1,$1+$1,$6,$7,$8,$9,0*
20,1,$1+$1,$8,$9,$2,$3,0*%
G04 Aperture macros list end*
%ADD10C,0.150000*%
%ADD11C,0.120000*%
%ADD12C,0.127000*%
%ADD13C,0.200000*%
%ADD14C,1.600000*%
%ADD15C,3.200000*%
%ADD16RoundRect,0.102000X-1.050000X1.050000X-1.050000X-1.050000X1.050000X-1.050000X1.050000X1.050000X0*%
%ADD17C,2.304000*%
%ADD18O,2.604000X5.004000*%
%ADD19O,3.604000X1.904000*%
%ADD20RoundRect,0.137500X-0.137500X0.587500X-0.137500X-0.587500X0.137500X-0.587500X0.137500X0.587500X0*%
%ADD21RoundRect,0.102000X-1.050000X-1.050000X1.050000X-1.050000X1.050000X1.050000X-1.050000X1.050000X0*%
%ADD22RoundRect,0.137500X0.137500X-0.587500X0.137500X0.587500X-0.137500X0.587500X-0.137500X-0.587500X0*%
%ADD23RoundRect,0.162500X-0.617500X-0.162500X0.617500X-0.162500X0.617500X0.162500X-0.617500X0.162500X0*%
%ADD24C,1.400000*%
%ADD25R,2.000000X2.000000*%
%ADD26O,1.600000X2.000000*%
%ADD27R,2.540000X2.540000*%
%ADD28C,2.540000*%
%ADD29RoundRect,0.102000X1.050000X1.050000X-1.050000X1.050000X-1.050000X-1.050000X1.050000X-1.050000X0*%
G04 APERTURE END LIST*
D10*
X83953333Y-111724819D02*
X83620000Y-111248628D01*
X83381905Y-111724819D02*
X83381905Y-110724819D01*
X83381905Y-110724819D02*
X83762857Y-110724819D01*
X83762857Y-110724819D02*
X83858095Y-110772438D01*
X83858095Y-110772438D02*
X83905714Y-110820057D01*
X83905714Y-110820057D02*
X83953333Y-110915295D01*
X83953333Y-110915295D02*
X83953333Y-111058152D01*
X83953333Y-111058152D02*
X83905714Y-111153390D01*
X83905714Y-111153390D02*
X83858095Y-111201009D01*
X83858095Y-111201009D02*
X83762857Y-111248628D01*
X83762857Y-111248628D02*
X83381905Y-111248628D01*
X84286667Y-110724819D02*
X84953333Y-110724819D01*
X84953333Y-110724819D02*
X84524762Y-111724819D01*
X59838095Y-140104819D02*
X59838095Y-139104819D01*
X59838095Y-139581009D02*
X60409523Y-139581009D01*
X60409523Y-140104819D02*
X60409523Y-139104819D01*
X60790476Y-139104819D02*
X61409523Y-139104819D01*
X61409523Y-139104819D02*
X61076190Y-139485771D01*
X61076190Y-139485771D02*
X61219047Y-139485771D01*
X61219047Y-139485771D02*
X61314285Y-139533390D01*
X61314285Y-139533390D02*
X61361904Y-139581009D01*
X61361904Y-139581009D02*
X61409523Y-139676247D01*
X61409523Y-139676247D02*
X61409523Y-139914342D01*
X61409523Y-139914342D02*
X61361904Y-140009580D01*
X61361904Y-140009580D02*
X61314285Y-140057200D01*
X61314285Y-140057200D02*
X61219047Y-140104819D01*
X61219047Y-140104819D02*
X60933333Y-140104819D01*
X60933333Y-140104819D02*
X60838095Y-140057200D01*
X60838095Y-140057200D02*
X60790476Y-140009580D01*
X61184819Y-117786666D02*
X60708628Y-118119999D01*
X61184819Y-118358094D02*
X60184819Y-118358094D01*
X60184819Y-118358094D02*
X60184819Y-117977142D01*
X60184819Y-117977142D02*
X60232438Y-117881904D01*
X60232438Y-117881904D02*
X60280057Y-117834285D01*
X60280057Y-117834285D02*
X60375295Y-117786666D01*
X60375295Y-117786666D02*
X60518152Y-117786666D01*
X60518152Y-117786666D02*
X60613390Y-117834285D01*
X60613390Y-117834285D02*
X60661009Y-117881904D01*
X60661009Y-117881904D02*
X60708628Y-117977142D01*
X60708628Y-117977142D02*
X60708628Y-118358094D01*
X60184819Y-117453332D02*
X60184819Y-116834285D01*
X60184819Y-116834285D02*
X60565771Y-117167618D01*
X60565771Y-117167618D02*
X60565771Y-117024761D01*
X60565771Y-117024761D02*
X60613390Y-116929523D01*
X60613390Y-116929523D02*
X60661009Y-116881904D01*
X60661009Y-116881904D02*
X60756247Y-116834285D01*
X60756247Y-116834285D02*
X60994342Y-116834285D01*
X60994342Y-116834285D02*
X61089580Y-116881904D01*
X61089580Y-116881904D02*
X61137200Y-116929523D01*
X61137200Y-116929523D02*
X61184819Y-117024761D01*
X61184819Y-117024761D02*
X61184819Y-117310475D01*
X61184819Y-117310475D02*
X61137200Y-117405713D01*
X61137200Y-117405713D02*
X61089580Y-117453332D01*
X36454819Y-84433333D02*
X37169104Y-84433333D01*
X37169104Y-84433333D02*
X37311961Y-84480952D01*
X37311961Y-84480952D02*
X37407200Y-84576190D01*
X37407200Y-84576190D02*
X37454819Y-84719047D01*
X37454819Y-84719047D02*
X37454819Y-84814285D01*
X36788152Y-83528571D02*
X37454819Y-83528571D01*
X36407200Y-83766666D02*
X37121485Y-84004761D01*
X37121485Y-84004761D02*
X37121485Y-83385714D01*
X37479035Y-130137512D02*
X37479035Y-130857383D01*
X37479035Y-130857383D02*
X37431043Y-131001357D01*
X37431043Y-131001357D02*
X37335061Y-131097340D01*
X37335061Y-131097340D02*
X37191086Y-131145331D01*
X37191086Y-131145331D02*
X37095104Y-131145331D01*
X37910957Y-130233495D02*
X37958948Y-130185503D01*
X37958948Y-130185503D02*
X38054931Y-130137512D01*
X38054931Y-130137512D02*
X38294888Y-130137512D01*
X38294888Y-130137512D02*
X38390871Y-130185503D01*
X38390871Y-130185503D02*
X38438862Y-130233495D01*
X38438862Y-130233495D02*
X38486854Y-130329477D01*
X38486854Y-130329477D02*
X38486854Y-130425460D01*
X38486854Y-130425460D02*
X38438862Y-130569434D01*
X38438862Y-130569434D02*
X37862966Y-131145331D01*
X37862966Y-131145331D02*
X38486854Y-131145331D01*
X36554819Y-94533333D02*
X37269104Y-94533333D01*
X37269104Y-94533333D02*
X37411961Y-94580952D01*
X37411961Y-94580952D02*
X37507200Y-94676190D01*
X37507200Y-94676190D02*
X37554819Y-94819047D01*
X37554819Y-94819047D02*
X37554819Y-94914285D01*
X36554819Y-93628571D02*
X36554819Y-93819047D01*
X36554819Y-93819047D02*
X36602438Y-93914285D01*
X36602438Y-93914285D02*
X36650057Y-93961904D01*
X36650057Y-93961904D02*
X36792914Y-94057142D01*
X36792914Y-94057142D02*
X36983390Y-94104761D01*
X36983390Y-94104761D02*
X37364342Y-94104761D01*
X37364342Y-94104761D02*
X37459580Y-94057142D01*
X37459580Y-94057142D02*
X37507200Y-94009523D01*
X37507200Y-94009523D02*
X37554819Y-93914285D01*
X37554819Y-93914285D02*
X37554819Y-93723809D01*
X37554819Y-93723809D02*
X37507200Y-93628571D01*
X37507200Y-93628571D02*
X37459580Y-93580952D01*
X37459580Y-93580952D02*
X37364342Y-93533333D01*
X37364342Y-93533333D02*
X37126247Y-93533333D01*
X37126247Y-93533333D02*
X37031009Y-93580952D01*
X37031009Y-93580952D02*
X36983390Y-93628571D01*
X36983390Y-93628571D02*
X36935771Y-93723809D01*
X36935771Y-93723809D02*
X36935771Y-93914285D01*
X36935771Y-93914285D02*
X36983390Y-94009523D01*
X36983390Y-94009523D02*
X37031009Y-94057142D01*
X37031009Y-94057142D02*
X37126247Y-94104761D01*
X101754819Y-108561904D02*
X102564342Y-108561904D01*
X102564342Y-108561904D02*
X102659580Y-108514285D01*
X102659580Y-108514285D02*
X102707200Y-108466666D01*
X102707200Y-108466666D02*
X102754819Y-108371428D01*
X102754819Y-108371428D02*
X102754819Y-108180952D01*
X102754819Y-108180952D02*
X102707200Y-108085714D01*
X102707200Y-108085714D02*
X102659580Y-108038095D01*
X102659580Y-108038095D02*
X102564342Y-107990476D01*
X102564342Y-107990476D02*
X101754819Y-107990476D01*
X101754819Y-107038095D02*
X101754819Y-107514285D01*
X101754819Y-107514285D02*
X102231009Y-107561904D01*
X102231009Y-107561904D02*
X102183390Y-107514285D01*
X102183390Y-107514285D02*
X102135771Y-107419047D01*
X102135771Y-107419047D02*
X102135771Y-107180952D01*
X102135771Y-107180952D02*
X102183390Y-107085714D01*
X102183390Y-107085714D02*
X102231009Y-107038095D01*
X102231009Y-107038095D02*
X102326247Y-106990476D01*
X102326247Y-106990476D02*
X102564342Y-106990476D01*
X102564342Y-106990476D02*
X102659580Y-107038095D01*
X102659580Y-107038095D02*
X102707200Y-107085714D01*
X102707200Y-107085714D02*
X102754819Y-107180952D01*
X102754819Y-107180952D02*
X102754819Y-107419047D01*
X102754819Y-107419047D02*
X102707200Y-107514285D01*
X102707200Y-107514285D02*
X102659580Y-107561904D01*
X80066667Y-141707200D02*
X80209524Y-141754819D01*
X80209524Y-141754819D02*
X80447619Y-141754819D01*
X80447619Y-141754819D02*
X80542857Y-141707200D01*
X80542857Y-141707200D02*
X80590476Y-141659580D01*
X80590476Y-141659580D02*
X80638095Y-141564342D01*
X80638095Y-141564342D02*
X80638095Y-141469104D01*
X80638095Y-141469104D02*
X80590476Y-141373866D01*
X80590476Y-141373866D02*
X80542857Y-141326247D01*
X80542857Y-141326247D02*
X80447619Y-141278628D01*
X80447619Y-141278628D02*
X80257143Y-141231009D01*
X80257143Y-141231009D02*
X80161905Y-141183390D01*
X80161905Y-141183390D02*
X80114286Y-141135771D01*
X80114286Y-141135771D02*
X80066667Y-141040533D01*
X80066667Y-141040533D02*
X80066667Y-140945295D01*
X80066667Y-140945295D02*
X80114286Y-140850057D01*
X80114286Y-140850057D02*
X80161905Y-140802438D01*
X80161905Y-140802438D02*
X80257143Y-140754819D01*
X80257143Y-140754819D02*
X80495238Y-140754819D01*
X80495238Y-140754819D02*
X80638095Y-140802438D01*
X80971429Y-140754819D02*
X81209524Y-141754819D01*
X81209524Y-141754819D02*
X81400000Y-141040533D01*
X81400000Y-141040533D02*
X81590476Y-141754819D01*
X81590476Y-141754819D02*
X81828572Y-140754819D01*
X82733333Y-141754819D02*
X82161905Y-141754819D01*
X82447619Y-141754819D02*
X82447619Y-140754819D01*
X82447619Y-140754819D02*
X82352381Y-140897676D01*
X82352381Y-140897676D02*
X82257143Y-140992914D01*
X82257143Y-140992914D02*
X82161905Y-141040533D01*
X49933333Y-102684819D02*
X49600000Y-102208628D01*
X49361905Y-102684819D02*
X49361905Y-101684819D01*
X49361905Y-101684819D02*
X49742857Y-101684819D01*
X49742857Y-101684819D02*
X49838095Y-101732438D01*
X49838095Y-101732438D02*
X49885714Y-101780057D01*
X49885714Y-101780057D02*
X49933333Y-101875295D01*
X49933333Y-101875295D02*
X49933333Y-102018152D01*
X49933333Y-102018152D02*
X49885714Y-102113390D01*
X49885714Y-102113390D02*
X49838095Y-102161009D01*
X49838095Y-102161009D02*
X49742857Y-102208628D01*
X49742857Y-102208628D02*
X49361905Y-102208628D01*
X50885714Y-102684819D02*
X50314286Y-102684819D01*
X50600000Y-102684819D02*
X50600000Y-101684819D01*
X50600000Y-101684819D02*
X50504762Y-101827676D01*
X50504762Y-101827676D02*
X50409524Y-101922914D01*
X50409524Y-101922914D02*
X50314286Y-101970533D01*
X50033333Y-108784819D02*
X49700000Y-108308628D01*
X49461905Y-108784819D02*
X49461905Y-107784819D01*
X49461905Y-107784819D02*
X49842857Y-107784819D01*
X49842857Y-107784819D02*
X49938095Y-107832438D01*
X49938095Y-107832438D02*
X49985714Y-107880057D01*
X49985714Y-107880057D02*
X50033333Y-107975295D01*
X50033333Y-107975295D02*
X50033333Y-108118152D01*
X50033333Y-108118152D02*
X49985714Y-108213390D01*
X49985714Y-108213390D02*
X49938095Y-108261009D01*
X49938095Y-108261009D02*
X49842857Y-108308628D01*
X49842857Y-108308628D02*
X49461905Y-108308628D01*
X50938095Y-107784819D02*
X50461905Y-107784819D01*
X50461905Y-107784819D02*
X50414286Y-108261009D01*
X50414286Y-108261009D02*
X50461905Y-108213390D01*
X50461905Y-108213390D02*
X50557143Y-108165771D01*
X50557143Y-108165771D02*
X50795238Y-108165771D01*
X50795238Y-108165771D02*
X50890476Y-108213390D01*
X50890476Y-108213390D02*
X50938095Y-108261009D01*
X50938095Y-108261009D02*
X50985714Y-108356247D01*
X50985714Y-108356247D02*
X50985714Y-108594342D01*
X50985714Y-108594342D02*
X50938095Y-108689580D01*
X50938095Y-108689580D02*
X50890476Y-108737200D01*
X50890476Y-108737200D02*
X50795238Y-108784819D01*
X50795238Y-108784819D02*
X50557143Y-108784819D01*
X50557143Y-108784819D02*
X50461905Y-108737200D01*
X50461905Y-108737200D02*
X50414286Y-108689580D01*
X86384819Y-126966666D02*
X85908628Y-127299999D01*
X86384819Y-127538094D02*
X85384819Y-127538094D01*
X85384819Y-127538094D02*
X85384819Y-127157142D01*
X85384819Y-127157142D02*
X85432438Y-127061904D01*
X85432438Y-127061904D02*
X85480057Y-127014285D01*
X85480057Y-127014285D02*
X85575295Y-126966666D01*
X85575295Y-126966666D02*
X85718152Y-126966666D01*
X85718152Y-126966666D02*
X85813390Y-127014285D01*
X85813390Y-127014285D02*
X85861009Y-127061904D01*
X85861009Y-127061904D02*
X85908628Y-127157142D01*
X85908628Y-127157142D02*
X85908628Y-127538094D01*
X85813390Y-126395237D02*
X85765771Y-126490475D01*
X85765771Y-126490475D02*
X85718152Y-126538094D01*
X85718152Y-126538094D02*
X85622914Y-126585713D01*
X85622914Y-126585713D02*
X85575295Y-126585713D01*
X85575295Y-126585713D02*
X85480057Y-126538094D01*
X85480057Y-126538094D02*
X85432438Y-126490475D01*
X85432438Y-126490475D02*
X85384819Y-126395237D01*
X85384819Y-126395237D02*
X85384819Y-126204761D01*
X85384819Y-126204761D02*
X85432438Y-126109523D01*
X85432438Y-126109523D02*
X85480057Y-126061904D01*
X85480057Y-126061904D02*
X85575295Y-126014285D01*
X85575295Y-126014285D02*
X85622914Y-126014285D01*
X85622914Y-126014285D02*
X85718152Y-126061904D01*
X85718152Y-126061904D02*
X85765771Y-126109523D01*
X85765771Y-126109523D02*
X85813390Y-126204761D01*
X85813390Y-126204761D02*
X85813390Y-126395237D01*
X85813390Y-126395237D02*
X85861009Y-126490475D01*
X85861009Y-126490475D02*
X85908628Y-126538094D01*
X85908628Y-126538094D02*
X86003866Y-126585713D01*
X86003866Y-126585713D02*
X86194342Y-126585713D01*
X86194342Y-126585713D02*
X86289580Y-126538094D01*
X86289580Y-126538094D02*
X86337200Y-126490475D01*
X86337200Y-126490475D02*
X86384819Y-126395237D01*
X86384819Y-126395237D02*
X86384819Y-126204761D01*
X86384819Y-126204761D02*
X86337200Y-126109523D01*
X86337200Y-126109523D02*
X86289580Y-126061904D01*
X86289580Y-126061904D02*
X86194342Y-126014285D01*
X86194342Y-126014285D02*
X86003866Y-126014285D01*
X86003866Y-126014285D02*
X85908628Y-126061904D01*
X85908628Y-126061904D02*
X85861009Y-126109523D01*
X85861009Y-126109523D02*
X85813390Y-126204761D01*
X48084819Y-139086666D02*
X47608628Y-139419999D01*
X48084819Y-139658094D02*
X47084819Y-139658094D01*
X47084819Y-139658094D02*
X47084819Y-139277142D01*
X47084819Y-139277142D02*
X47132438Y-139181904D01*
X47132438Y-139181904D02*
X47180057Y-139134285D01*
X47180057Y-139134285D02*
X47275295Y-139086666D01*
X47275295Y-139086666D02*
X47418152Y-139086666D01*
X47418152Y-139086666D02*
X47513390Y-139134285D01*
X47513390Y-139134285D02*
X47561009Y-139181904D01*
X47561009Y-139181904D02*
X47608628Y-139277142D01*
X47608628Y-139277142D02*
X47608628Y-139658094D01*
X47418152Y-138229523D02*
X48084819Y-138229523D01*
X47037200Y-138467618D02*
X47751485Y-138705713D01*
X47751485Y-138705713D02*
X47751485Y-138086666D01*
X90254819Y-94361904D02*
X91064342Y-94361904D01*
X91064342Y-94361904D02*
X91159580Y-94314285D01*
X91159580Y-94314285D02*
X91207200Y-94266666D01*
X91207200Y-94266666D02*
X91254819Y-94171428D01*
X91254819Y-94171428D02*
X91254819Y-93980952D01*
X91254819Y-93980952D02*
X91207200Y-93885714D01*
X91207200Y-93885714D02*
X91159580Y-93838095D01*
X91159580Y-93838095D02*
X91064342Y-93790476D01*
X91064342Y-93790476D02*
X90254819Y-93790476D01*
X90254819Y-93409523D02*
X90254819Y-92790476D01*
X90254819Y-92790476D02*
X90635771Y-93123809D01*
X90635771Y-93123809D02*
X90635771Y-92980952D01*
X90635771Y-92980952D02*
X90683390Y-92885714D01*
X90683390Y-92885714D02*
X90731009Y-92838095D01*
X90731009Y-92838095D02*
X90826247Y-92790476D01*
X90826247Y-92790476D02*
X91064342Y-92790476D01*
X91064342Y-92790476D02*
X91159580Y-92838095D01*
X91159580Y-92838095D02*
X91207200Y-92885714D01*
X91207200Y-92885714D02*
X91254819Y-92980952D01*
X91254819Y-92980952D02*
X91254819Y-93266666D01*
X91254819Y-93266666D02*
X91207200Y-93361904D01*
X91207200Y-93361904D02*
X91159580Y-93409523D01*
X56588095Y-112604819D02*
X56588095Y-113414342D01*
X56588095Y-113414342D02*
X56635714Y-113509580D01*
X56635714Y-113509580D02*
X56683333Y-113557200D01*
X56683333Y-113557200D02*
X56778571Y-113604819D01*
X56778571Y-113604819D02*
X56969047Y-113604819D01*
X56969047Y-113604819D02*
X57064285Y-113557200D01*
X57064285Y-113557200D02*
X57111904Y-113509580D01*
X57111904Y-113509580D02*
X57159523Y-113414342D01*
X57159523Y-113414342D02*
X57159523Y-112604819D01*
X58159523Y-113604819D02*
X57588095Y-113604819D01*
X57873809Y-113604819D02*
X57873809Y-112604819D01*
X57873809Y-112604819D02*
X57778571Y-112747676D01*
X57778571Y-112747676D02*
X57683333Y-112842914D01*
X57683333Y-112842914D02*
X57588095Y-112890533D01*
X70066667Y-141707200D02*
X70209524Y-141754819D01*
X70209524Y-141754819D02*
X70447619Y-141754819D01*
X70447619Y-141754819D02*
X70542857Y-141707200D01*
X70542857Y-141707200D02*
X70590476Y-141659580D01*
X70590476Y-141659580D02*
X70638095Y-141564342D01*
X70638095Y-141564342D02*
X70638095Y-141469104D01*
X70638095Y-141469104D02*
X70590476Y-141373866D01*
X70590476Y-141373866D02*
X70542857Y-141326247D01*
X70542857Y-141326247D02*
X70447619Y-141278628D01*
X70447619Y-141278628D02*
X70257143Y-141231009D01*
X70257143Y-141231009D02*
X70161905Y-141183390D01*
X70161905Y-141183390D02*
X70114286Y-141135771D01*
X70114286Y-141135771D02*
X70066667Y-141040533D01*
X70066667Y-141040533D02*
X70066667Y-140945295D01*
X70066667Y-140945295D02*
X70114286Y-140850057D01*
X70114286Y-140850057D02*
X70161905Y-140802438D01*
X70161905Y-140802438D02*
X70257143Y-140754819D01*
X70257143Y-140754819D02*
X70495238Y-140754819D01*
X70495238Y-140754819D02*
X70638095Y-140802438D01*
X70971429Y-140754819D02*
X71209524Y-141754819D01*
X71209524Y-141754819D02*
X71400000Y-141040533D01*
X71400000Y-141040533D02*
X71590476Y-141754819D01*
X71590476Y-141754819D02*
X71828572Y-140754819D01*
X72685714Y-140754819D02*
X72209524Y-140754819D01*
X72209524Y-140754819D02*
X72161905Y-141231009D01*
X72161905Y-141231009D02*
X72209524Y-141183390D01*
X72209524Y-141183390D02*
X72304762Y-141135771D01*
X72304762Y-141135771D02*
X72542857Y-141135771D01*
X72542857Y-141135771D02*
X72638095Y-141183390D01*
X72638095Y-141183390D02*
X72685714Y-141231009D01*
X72685714Y-141231009D02*
X72733333Y-141326247D01*
X72733333Y-141326247D02*
X72733333Y-141564342D01*
X72733333Y-141564342D02*
X72685714Y-141659580D01*
X72685714Y-141659580D02*
X72638095Y-141707200D01*
X72638095Y-141707200D02*
X72542857Y-141754819D01*
X72542857Y-141754819D02*
X72304762Y-141754819D01*
X72304762Y-141754819D02*
X72209524Y-141707200D01*
X72209524Y-141707200D02*
X72161905Y-141659580D01*
X42554819Y-143533333D02*
X43269104Y-143533333D01*
X43269104Y-143533333D02*
X43411961Y-143580952D01*
X43411961Y-143580952D02*
X43507200Y-143676190D01*
X43507200Y-143676190D02*
X43554819Y-143819047D01*
X43554819Y-143819047D02*
X43554819Y-143914285D01*
X43554819Y-143057142D02*
X42554819Y-143057142D01*
X42554819Y-143057142D02*
X42554819Y-142676190D01*
X42554819Y-142676190D02*
X42602438Y-142580952D01*
X42602438Y-142580952D02*
X42650057Y-142533333D01*
X42650057Y-142533333D02*
X42745295Y-142485714D01*
X42745295Y-142485714D02*
X42888152Y-142485714D01*
X42888152Y-142485714D02*
X42983390Y-142533333D01*
X42983390Y-142533333D02*
X43031009Y-142580952D01*
X43031009Y-142580952D02*
X43078628Y-142676190D01*
X43078628Y-142676190D02*
X43078628Y-143057142D01*
X43554819Y-141533333D02*
X43554819Y-142104761D01*
X43554819Y-141819047D02*
X42554819Y-141819047D01*
X42554819Y-141819047D02*
X42697676Y-141914285D01*
X42697676Y-141914285D02*
X42792914Y-142009523D01*
X42792914Y-142009523D02*
X42840533Y-142104761D01*
X49733333Y-120584819D02*
X49400000Y-120108628D01*
X49161905Y-120584819D02*
X49161905Y-119584819D01*
X49161905Y-119584819D02*
X49542857Y-119584819D01*
X49542857Y-119584819D02*
X49638095Y-119632438D01*
X49638095Y-119632438D02*
X49685714Y-119680057D01*
X49685714Y-119680057D02*
X49733333Y-119775295D01*
X49733333Y-119775295D02*
X49733333Y-119918152D01*
X49733333Y-119918152D02*
X49685714Y-120013390D01*
X49685714Y-120013390D02*
X49638095Y-120061009D01*
X49638095Y-120061009D02*
X49542857Y-120108628D01*
X49542857Y-120108628D02*
X49161905Y-120108628D01*
X50590476Y-119584819D02*
X50400000Y-119584819D01*
X50400000Y-119584819D02*
X50304762Y-119632438D01*
X50304762Y-119632438D02*
X50257143Y-119680057D01*
X50257143Y-119680057D02*
X50161905Y-119822914D01*
X50161905Y-119822914D02*
X50114286Y-120013390D01*
X50114286Y-120013390D02*
X50114286Y-120394342D01*
X50114286Y-120394342D02*
X50161905Y-120489580D01*
X50161905Y-120489580D02*
X50209524Y-120537200D01*
X50209524Y-120537200D02*
X50304762Y-120584819D01*
X50304762Y-120584819D02*
X50495238Y-120584819D01*
X50495238Y-120584819D02*
X50590476Y-120537200D01*
X50590476Y-120537200D02*
X50638095Y-120489580D01*
X50638095Y-120489580D02*
X50685714Y-120394342D01*
X50685714Y-120394342D02*
X50685714Y-120156247D01*
X50685714Y-120156247D02*
X50638095Y-120061009D01*
X50638095Y-120061009D02*
X50590476Y-120013390D01*
X50590476Y-120013390D02*
X50495238Y-119965771D01*
X50495238Y-119965771D02*
X50304762Y-119965771D01*
X50304762Y-119965771D02*
X50209524Y-120013390D01*
X50209524Y-120013390D02*
X50161905Y-120061009D01*
X50161905Y-120061009D02*
X50114286Y-120156247D01*
X97154819Y-138146904D02*
X97964342Y-138146904D01*
X97964342Y-138146904D02*
X98059580Y-138099285D01*
X98059580Y-138099285D02*
X98107200Y-138051666D01*
X98107200Y-138051666D02*
X98154819Y-137956428D01*
X98154819Y-137956428D02*
X98154819Y-137765952D01*
X98154819Y-137765952D02*
X98107200Y-137670714D01*
X98107200Y-137670714D02*
X98059580Y-137623095D01*
X98059580Y-137623095D02*
X97964342Y-137575476D01*
X97964342Y-137575476D02*
X97154819Y-137575476D01*
X97250057Y-137146904D02*
X97202438Y-137099285D01*
X97202438Y-137099285D02*
X97154819Y-137004047D01*
X97154819Y-137004047D02*
X97154819Y-136765952D01*
X97154819Y-136765952D02*
X97202438Y-136670714D01*
X97202438Y-136670714D02*
X97250057Y-136623095D01*
X97250057Y-136623095D02*
X97345295Y-136575476D01*
X97345295Y-136575476D02*
X97440533Y-136575476D01*
X97440533Y-136575476D02*
X97583390Y-136623095D01*
X97583390Y-136623095D02*
X98154819Y-137194523D01*
X98154819Y-137194523D02*
X98154819Y-136575476D01*
X66758095Y-102354819D02*
X66758095Y-103164342D01*
X66758095Y-103164342D02*
X66805714Y-103259580D01*
X66805714Y-103259580D02*
X66853333Y-103307200D01*
X66853333Y-103307200D02*
X66948571Y-103354819D01*
X66948571Y-103354819D02*
X67139047Y-103354819D01*
X67139047Y-103354819D02*
X67234285Y-103307200D01*
X67234285Y-103307200D02*
X67281904Y-103259580D01*
X67281904Y-103259580D02*
X67329523Y-103164342D01*
X67329523Y-103164342D02*
X67329523Y-102354819D01*
X68234285Y-102688152D02*
X68234285Y-103354819D01*
X67996190Y-102307200D02*
X67758095Y-103021485D01*
X67758095Y-103021485D02*
X68377142Y-103021485D01*
X59838095Y-102204819D02*
X59838095Y-101204819D01*
X59838095Y-101681009D02*
X60409523Y-101681009D01*
X60409523Y-102204819D02*
X60409523Y-101204819D01*
X60838095Y-101300057D02*
X60885714Y-101252438D01*
X60885714Y-101252438D02*
X60980952Y-101204819D01*
X60980952Y-101204819D02*
X61219047Y-101204819D01*
X61219047Y-101204819D02*
X61314285Y-101252438D01*
X61314285Y-101252438D02*
X61361904Y-101300057D01*
X61361904Y-101300057D02*
X61409523Y-101395295D01*
X61409523Y-101395295D02*
X61409523Y-101490533D01*
X61409523Y-101490533D02*
X61361904Y-101633390D01*
X61361904Y-101633390D02*
X60790476Y-102204819D01*
X60790476Y-102204819D02*
X61409523Y-102204819D01*
X37479035Y-115137512D02*
X37479035Y-115857383D01*
X37479035Y-115857383D02*
X37431043Y-116001357D01*
X37431043Y-116001357D02*
X37335061Y-116097340D01*
X37335061Y-116097340D02*
X37191086Y-116145331D01*
X37191086Y-116145331D02*
X37095104Y-116145331D01*
X38486854Y-116145331D02*
X37910957Y-116145331D01*
X38198905Y-116145331D02*
X38198905Y-115137512D01*
X38198905Y-115137512D02*
X38102923Y-115281486D01*
X38102923Y-115281486D02*
X38006940Y-115377469D01*
X38006940Y-115377469D02*
X37910957Y-115425460D01*
X98438095Y-140104819D02*
X98438095Y-139104819D01*
X98438095Y-139581009D02*
X99009523Y-139581009D01*
X99009523Y-140104819D02*
X99009523Y-139104819D01*
X100009523Y-140104819D02*
X99438095Y-140104819D01*
X99723809Y-140104819D02*
X99723809Y-139104819D01*
X99723809Y-139104819D02*
X99628571Y-139247676D01*
X99628571Y-139247676D02*
X99533333Y-139342914D01*
X99533333Y-139342914D02*
X99438095Y-139390533D01*
X37479035Y-145137512D02*
X37479035Y-145857383D01*
X37479035Y-145857383D02*
X37431043Y-146001357D01*
X37431043Y-146001357D02*
X37335061Y-146097340D01*
X37335061Y-146097340D02*
X37191086Y-146145331D01*
X37191086Y-146145331D02*
X37095104Y-146145331D01*
X37862966Y-145137512D02*
X38486854Y-145137512D01*
X38486854Y-145137512D02*
X38150914Y-145521443D01*
X38150914Y-145521443D02*
X38294888Y-145521443D01*
X38294888Y-145521443D02*
X38390871Y-145569434D01*
X38390871Y-145569434D02*
X38438862Y-145617426D01*
X38438862Y-145617426D02*
X38486854Y-145713408D01*
X38486854Y-145713408D02*
X38486854Y-145953365D01*
X38486854Y-145953365D02*
X38438862Y-146049348D01*
X38438862Y-146049348D02*
X38390871Y-146097340D01*
X38390871Y-146097340D02*
X38294888Y-146145331D01*
X38294888Y-146145331D02*
X38006940Y-146145331D01*
X38006940Y-146145331D02*
X37910957Y-146097340D01*
X37910957Y-146097340D02*
X37862966Y-146049348D01*
X91084819Y-126966666D02*
X90608628Y-127299999D01*
X91084819Y-127538094D02*
X90084819Y-127538094D01*
X90084819Y-127538094D02*
X90084819Y-127157142D01*
X90084819Y-127157142D02*
X90132438Y-127061904D01*
X90132438Y-127061904D02*
X90180057Y-127014285D01*
X90180057Y-127014285D02*
X90275295Y-126966666D01*
X90275295Y-126966666D02*
X90418152Y-126966666D01*
X90418152Y-126966666D02*
X90513390Y-127014285D01*
X90513390Y-127014285D02*
X90561009Y-127061904D01*
X90561009Y-127061904D02*
X90608628Y-127157142D01*
X90608628Y-127157142D02*
X90608628Y-127538094D01*
X91084819Y-126490475D02*
X91084819Y-126299999D01*
X91084819Y-126299999D02*
X91037200Y-126204761D01*
X91037200Y-126204761D02*
X90989580Y-126157142D01*
X90989580Y-126157142D02*
X90846723Y-126061904D01*
X90846723Y-126061904D02*
X90656247Y-126014285D01*
X90656247Y-126014285D02*
X90275295Y-126014285D01*
X90275295Y-126014285D02*
X90180057Y-126061904D01*
X90180057Y-126061904D02*
X90132438Y-126109523D01*
X90132438Y-126109523D02*
X90084819Y-126204761D01*
X90084819Y-126204761D02*
X90084819Y-126395237D01*
X90084819Y-126395237D02*
X90132438Y-126490475D01*
X90132438Y-126490475D02*
X90180057Y-126538094D01*
X90180057Y-126538094D02*
X90275295Y-126585713D01*
X90275295Y-126585713D02*
X90513390Y-126585713D01*
X90513390Y-126585713D02*
X90608628Y-126538094D01*
X90608628Y-126538094D02*
X90656247Y-126490475D01*
X90656247Y-126490475D02*
X90703866Y-126395237D01*
X90703866Y-126395237D02*
X90703866Y-126204761D01*
X90703866Y-126204761D02*
X90656247Y-126109523D01*
X90656247Y-126109523D02*
X90608628Y-126061904D01*
X90608628Y-126061904D02*
X90513390Y-126014285D01*
X49833333Y-126884819D02*
X49500000Y-126408628D01*
X49261905Y-126884819D02*
X49261905Y-125884819D01*
X49261905Y-125884819D02*
X49642857Y-125884819D01*
X49642857Y-125884819D02*
X49738095Y-125932438D01*
X49738095Y-125932438D02*
X49785714Y-125980057D01*
X49785714Y-125980057D02*
X49833333Y-126075295D01*
X49833333Y-126075295D02*
X49833333Y-126218152D01*
X49833333Y-126218152D02*
X49785714Y-126313390D01*
X49785714Y-126313390D02*
X49738095Y-126361009D01*
X49738095Y-126361009D02*
X49642857Y-126408628D01*
X49642857Y-126408628D02*
X49261905Y-126408628D01*
X50214286Y-125980057D02*
X50261905Y-125932438D01*
X50261905Y-125932438D02*
X50357143Y-125884819D01*
X50357143Y-125884819D02*
X50595238Y-125884819D01*
X50595238Y-125884819D02*
X50690476Y-125932438D01*
X50690476Y-125932438D02*
X50738095Y-125980057D01*
X50738095Y-125980057D02*
X50785714Y-126075295D01*
X50785714Y-126075295D02*
X50785714Y-126170533D01*
X50785714Y-126170533D02*
X50738095Y-126313390D01*
X50738095Y-126313390D02*
X50166667Y-126884819D01*
X50166667Y-126884819D02*
X50785714Y-126884819D01*
X81684819Y-127442857D02*
X81208628Y-127776190D01*
X81684819Y-128014285D02*
X80684819Y-128014285D01*
X80684819Y-128014285D02*
X80684819Y-127633333D01*
X80684819Y-127633333D02*
X80732438Y-127538095D01*
X80732438Y-127538095D02*
X80780057Y-127490476D01*
X80780057Y-127490476D02*
X80875295Y-127442857D01*
X80875295Y-127442857D02*
X81018152Y-127442857D01*
X81018152Y-127442857D02*
X81113390Y-127490476D01*
X81113390Y-127490476D02*
X81161009Y-127538095D01*
X81161009Y-127538095D02*
X81208628Y-127633333D01*
X81208628Y-127633333D02*
X81208628Y-128014285D01*
X81684819Y-126490476D02*
X81684819Y-127061904D01*
X81684819Y-126776190D02*
X80684819Y-126776190D01*
X80684819Y-126776190D02*
X80827676Y-126871428D01*
X80827676Y-126871428D02*
X80922914Y-126966666D01*
X80922914Y-126966666D02*
X80970533Y-127061904D01*
X81684819Y-125538095D02*
X81684819Y-126109523D01*
X81684819Y-125823809D02*
X80684819Y-125823809D01*
X80684819Y-125823809D02*
X80827676Y-125919047D01*
X80827676Y-125919047D02*
X80922914Y-126014285D01*
X80922914Y-126014285D02*
X80970533Y-126109523D01*
X90584819Y-104842857D02*
X90108628Y-105176190D01*
X90584819Y-105414285D02*
X89584819Y-105414285D01*
X89584819Y-105414285D02*
X89584819Y-105033333D01*
X89584819Y-105033333D02*
X89632438Y-104938095D01*
X89632438Y-104938095D02*
X89680057Y-104890476D01*
X89680057Y-104890476D02*
X89775295Y-104842857D01*
X89775295Y-104842857D02*
X89918152Y-104842857D01*
X89918152Y-104842857D02*
X90013390Y-104890476D01*
X90013390Y-104890476D02*
X90061009Y-104938095D01*
X90061009Y-104938095D02*
X90108628Y-105033333D01*
X90108628Y-105033333D02*
X90108628Y-105414285D01*
X90584819Y-103890476D02*
X90584819Y-104461904D01*
X90584819Y-104176190D02*
X89584819Y-104176190D01*
X89584819Y-104176190D02*
X89727676Y-104271428D01*
X89727676Y-104271428D02*
X89822914Y-104366666D01*
X89822914Y-104366666D02*
X89870533Y-104461904D01*
X89680057Y-103509523D02*
X89632438Y-103461904D01*
X89632438Y-103461904D02*
X89584819Y-103366666D01*
X89584819Y-103366666D02*
X89584819Y-103128571D01*
X89584819Y-103128571D02*
X89632438Y-103033333D01*
X89632438Y-103033333D02*
X89680057Y-102985714D01*
X89680057Y-102985714D02*
X89775295Y-102938095D01*
X89775295Y-102938095D02*
X89870533Y-102938095D01*
X89870533Y-102938095D02*
X90013390Y-102985714D01*
X90013390Y-102985714D02*
X90584819Y-103557142D01*
X90584819Y-103557142D02*
X90584819Y-102938095D01*
X96666666Y-82154819D02*
X96666666Y-82869104D01*
X96666666Y-82869104D02*
X96619047Y-83011961D01*
X96619047Y-83011961D02*
X96523809Y-83107200D01*
X96523809Y-83107200D02*
X96380952Y-83154819D01*
X96380952Y-83154819D02*
X96285714Y-83154819D01*
X97619047Y-82154819D02*
X97142857Y-82154819D01*
X97142857Y-82154819D02*
X97095238Y-82631009D01*
X97095238Y-82631009D02*
X97142857Y-82583390D01*
X97142857Y-82583390D02*
X97238095Y-82535771D01*
X97238095Y-82535771D02*
X97476190Y-82535771D01*
X97476190Y-82535771D02*
X97571428Y-82583390D01*
X97571428Y-82583390D02*
X97619047Y-82631009D01*
X97619047Y-82631009D02*
X97666666Y-82726247D01*
X97666666Y-82726247D02*
X97666666Y-82964342D01*
X97666666Y-82964342D02*
X97619047Y-83059580D01*
X97619047Y-83059580D02*
X97571428Y-83107200D01*
X97571428Y-83107200D02*
X97476190Y-83154819D01*
X97476190Y-83154819D02*
X97238095Y-83154819D01*
X97238095Y-83154819D02*
X97142857Y-83107200D01*
X97142857Y-83107200D02*
X97095238Y-83059580D01*
X98654819Y-94822857D02*
X98178628Y-95156190D01*
X98654819Y-95394285D02*
X97654819Y-95394285D01*
X97654819Y-95394285D02*
X97654819Y-95013333D01*
X97654819Y-95013333D02*
X97702438Y-94918095D01*
X97702438Y-94918095D02*
X97750057Y-94870476D01*
X97750057Y-94870476D02*
X97845295Y-94822857D01*
X97845295Y-94822857D02*
X97988152Y-94822857D01*
X97988152Y-94822857D02*
X98083390Y-94870476D01*
X98083390Y-94870476D02*
X98131009Y-94918095D01*
X98131009Y-94918095D02*
X98178628Y-95013333D01*
X98178628Y-95013333D02*
X98178628Y-95394285D01*
X98654819Y-93870476D02*
X98654819Y-94441904D01*
X98654819Y-94156190D02*
X97654819Y-94156190D01*
X97654819Y-94156190D02*
X97797676Y-94251428D01*
X97797676Y-94251428D02*
X97892914Y-94346666D01*
X97892914Y-94346666D02*
X97940533Y-94441904D01*
X97654819Y-93251428D02*
X97654819Y-93156190D01*
X97654819Y-93156190D02*
X97702438Y-93060952D01*
X97702438Y-93060952D02*
X97750057Y-93013333D01*
X97750057Y-93013333D02*
X97845295Y-92965714D01*
X97845295Y-92965714D02*
X98035771Y-92918095D01*
X98035771Y-92918095D02*
X98273866Y-92918095D01*
X98273866Y-92918095D02*
X98464342Y-92965714D01*
X98464342Y-92965714D02*
X98559580Y-93013333D01*
X98559580Y-93013333D02*
X98607200Y-93060952D01*
X98607200Y-93060952D02*
X98654819Y-93156190D01*
X98654819Y-93156190D02*
X98654819Y-93251428D01*
X98654819Y-93251428D02*
X98607200Y-93346666D01*
X98607200Y-93346666D02*
X98559580Y-93394285D01*
X98559580Y-93394285D02*
X98464342Y-93441904D01*
X98464342Y-93441904D02*
X98273866Y-93489523D01*
X98273866Y-93489523D02*
X98035771Y-93489523D01*
X98035771Y-93489523D02*
X97845295Y-93441904D01*
X97845295Y-93441904D02*
X97750057Y-93394285D01*
X97750057Y-93394285D02*
X97702438Y-93346666D01*
X97702438Y-93346666D02*
X97654819Y-93251428D01*
D11*
%TO.C,R7*%
X80080000Y-108900000D02*
X80850000Y-108900000D01*
X88160000Y-108900000D02*
X87390000Y-108900000D01*
X87390000Y-110270000D02*
X80850000Y-110270000D01*
X80850000Y-107530000D01*
X87390000Y-107530000D01*
X87390000Y-110270000D01*
%TO.C,R3*%
X63100000Y-113580000D02*
X63100000Y-114350000D01*
X63100000Y-121660000D02*
X63100000Y-120890000D01*
X61730000Y-120890000D02*
X64470000Y-120890000D01*
X64470000Y-114350000D01*
X61730000Y-114350000D01*
X61730000Y-120890000D01*
D12*
%TO.C,J4*%
X33500000Y-79100000D02*
X41000000Y-79100000D01*
X33500000Y-89100000D02*
X33500000Y-79100000D01*
X41000000Y-79100000D02*
X41000000Y-89100000D01*
X41000000Y-89100000D02*
X33500000Y-89100000D01*
D13*
X37100000Y-78500000D02*
G75*
G02*
X36900000Y-78500000I-100000J0D01*
G01*
X36900000Y-78500000D02*
G75*
G02*
X37100000Y-78500000I100000J0D01*
G01*
D12*
%TO.C,J2*%
X21500000Y-127540000D02*
X21500000Y-120240000D01*
X21890000Y-119850000D02*
X30750000Y-119850000D01*
X30750000Y-128150000D02*
X22110000Y-128150000D01*
X31000000Y-121000000D02*
X31000000Y-127000000D01*
X40600000Y-122000000D02*
X40600000Y-123000000D01*
X40600000Y-125000000D02*
X40600000Y-126000000D01*
X40600000Y-126000000D02*
X41000000Y-126000000D01*
X41000000Y-119000000D02*
X33000000Y-119000000D01*
X41000000Y-119000000D02*
X41000000Y-122000000D01*
X41000000Y-122000000D02*
X40600000Y-122000000D01*
X41000000Y-126000000D02*
X41000000Y-129000000D01*
X41000000Y-129000000D02*
X33000000Y-129000000D01*
X21500000Y-120240000D02*
G75*
G02*
X21890000Y-119850000I390000J0D01*
G01*
X22110000Y-128150000D02*
G75*
G02*
X21500000Y-127540000I0J610000D01*
G01*
D13*
X35090000Y-118487000D02*
G75*
G02*
X34890000Y-118487000I-100000J0D01*
G01*
X34890000Y-118487000D02*
G75*
G02*
X35090000Y-118487000I100000J0D01*
G01*
D12*
%TO.C,J6*%
X33500000Y-89100000D02*
X41000000Y-89100000D01*
X33500000Y-99100000D02*
X33500000Y-89100000D01*
X41000000Y-89100000D02*
X41000000Y-99100000D01*
X41000000Y-99100000D02*
X33500000Y-99100000D01*
D13*
X37100000Y-88500000D02*
G75*
G02*
X36900000Y-88500000I-100000J0D01*
G01*
X36900000Y-88500000D02*
G75*
G02*
X37100000Y-88500000I100000J0D01*
G01*
D11*
%TO.C,U5*%
X97140000Y-105790000D02*
X97495000Y-105790000D01*
X97140000Y-107800000D02*
X97140000Y-105790000D01*
X97140000Y-107800000D02*
X97140000Y-109810000D01*
X97140000Y-109810000D02*
X97495000Y-109810000D01*
X101460000Y-105790000D02*
X101105000Y-105790000D01*
X101460000Y-107800000D02*
X101460000Y-105790000D01*
X101460000Y-107800000D02*
X101460000Y-109810000D01*
X101460000Y-109810000D02*
X101105000Y-109810000D01*
X101435000Y-105352500D02*
X101105000Y-105112500D01*
X101435000Y-104872500D01*
X101435000Y-105352500D01*
G36*
X101435000Y-105352500D02*
G01*
X101105000Y-105112500D01*
X101435000Y-104872500D01*
X101435000Y-105352500D01*
G37*
D12*
%TO.C,SW1*%
X76400000Y-139700000D02*
X86400000Y-139700000D01*
X76400000Y-147200000D02*
X76400000Y-139700000D01*
X86400000Y-139700000D02*
X86400000Y-147200000D01*
X86400000Y-147200000D02*
X76400000Y-147200000D01*
D13*
X75900000Y-143700000D02*
G75*
G02*
X75700000Y-143700000I-100000J0D01*
G01*
X75700000Y-143700000D02*
G75*
G02*
X75900000Y-143700000I100000J0D01*
G01*
D11*
%TO.C,R1*%
X46060000Y-104600000D02*
X46830000Y-104600000D01*
X54140000Y-104600000D02*
X53370000Y-104600000D01*
X46830000Y-103230000D02*
X53370000Y-103230000D01*
X53370000Y-105970000D01*
X46830000Y-105970000D01*
X46830000Y-103230000D01*
%TO.C,R5*%
X46160000Y-110700000D02*
X46930000Y-110700000D01*
X54240000Y-110700000D02*
X53470000Y-110700000D01*
X46930000Y-109330000D02*
X53470000Y-109330000D01*
X53470000Y-112070000D01*
X46930000Y-112070000D01*
X46930000Y-109330000D01*
%TO.C,R8*%
X88300000Y-122760000D02*
X88300000Y-123530000D01*
X88300000Y-130840000D02*
X88300000Y-130070000D01*
X86930000Y-130070000D02*
X89670000Y-130070000D01*
X89670000Y-123530000D01*
X86930000Y-123530000D01*
X86930000Y-130070000D01*
%TO.C,R4*%
X50000000Y-134880000D02*
X50000000Y-135650000D01*
X50000000Y-142960000D02*
X50000000Y-142190000D01*
X48630000Y-142190000D02*
X51370000Y-142190000D01*
X51370000Y-135650000D01*
X48630000Y-135650000D01*
X48630000Y-142190000D01*
%TO.C,U3*%
X91640000Y-91590000D02*
X91995000Y-91590000D01*
X91640000Y-93600000D02*
X91640000Y-91590000D01*
X91640000Y-93600000D02*
X91640000Y-95610000D01*
X91640000Y-95610000D02*
X91995000Y-95610000D01*
X95960000Y-91590000D02*
X95605000Y-91590000D01*
X95960000Y-93600000D02*
X95960000Y-91590000D01*
X95960000Y-93600000D02*
X95960000Y-95610000D01*
X95960000Y-95610000D02*
X95605000Y-95610000D01*
X91995000Y-96287500D02*
X91665000Y-96527500D01*
X91665000Y-96047500D01*
X91995000Y-96287500D01*
G36*
X91995000Y-96287500D02*
G01*
X91665000Y-96527500D01*
X91665000Y-96047500D01*
X91995000Y-96287500D01*
G37*
%TO.C,U1*%
X56450000Y-117660000D02*
X58250000Y-117660000D01*
X57450000Y-114440000D02*
X56650000Y-114440000D01*
X57450000Y-114440000D02*
X58250000Y-114440000D01*
X56150000Y-114490000D02*
X55910000Y-114160000D01*
X56390000Y-114160000D01*
X56150000Y-114490000D01*
G36*
X56150000Y-114490000D02*
G01*
X55910000Y-114160000D01*
X56390000Y-114160000D01*
X56150000Y-114490000D01*
G37*
D12*
%TO.C,SW5*%
X66400000Y-139700000D02*
X76400000Y-139700000D01*
X66400000Y-147200000D02*
X66400000Y-139700000D01*
X76400000Y-139700000D02*
X76400000Y-147200000D01*
X76400000Y-147200000D02*
X66400000Y-147200000D01*
D13*
X65900000Y-143700000D02*
G75*
G02*
X65700000Y-143700000I-100000J0D01*
G01*
X65700000Y-143700000D02*
G75*
G02*
X65900000Y-143700000I100000J0D01*
G01*
D10*
%TO.C,JP1*%
X44200000Y-140930000D02*
X44700000Y-140430000D01*
X44200000Y-144530000D02*
X44200000Y-140930000D01*
X44700000Y-140430000D02*
X45500000Y-140430000D01*
X44700000Y-145030000D02*
X44200000Y-144530000D01*
X45500000Y-140430000D02*
X46000000Y-140930000D01*
X45500000Y-145030000D02*
X44700000Y-145030000D01*
X46000000Y-140930000D02*
X46000000Y-144530000D01*
X46000000Y-144530000D02*
X45500000Y-145030000D01*
D11*
%TO.C,R6*%
X45860000Y-122500000D02*
X46630000Y-122500000D01*
X53940000Y-122500000D02*
X53170000Y-122500000D01*
X46630000Y-121130000D02*
X53170000Y-121130000D01*
X53170000Y-123870000D01*
X46630000Y-123870000D01*
X46630000Y-121130000D01*
%TO.C,U2*%
X66470000Y-114805000D02*
X66470000Y-136415000D01*
X94030000Y-136005000D02*
X100930000Y-136005000D01*
X94030000Y-138545000D02*
X68600000Y-138545000D01*
X94030000Y-138545000D02*
X94030000Y-136005000D01*
X100930000Y-112685000D02*
X68600000Y-112685000D01*
X100930000Y-136005000D02*
X100930000Y-112685000D01*
X66470000Y-114815000D02*
G75*
G02*
X68600000Y-112685000I2130000J0D01*
G01*
X68600000Y-138545000D02*
G75*
G02*
X66470000Y-136415000I2J2130002D01*
G01*
D10*
X75445000Y-139585000D02*
X74175000Y-139585000D01*
X74810000Y-138950000D01*
X75445000Y-139585000D01*
G36*
X75445000Y-139585000D02*
G01*
X74175000Y-139585000D01*
X74810000Y-138950000D01*
X75445000Y-139585000D01*
G37*
D11*
%TO.C,U4*%
X45645000Y-79365000D02*
X45645000Y-100815000D01*
X45645000Y-100815000D02*
X89395000Y-100815000D01*
X45650000Y-79620000D02*
X46950000Y-79620000D01*
X45650000Y-82775000D02*
X48780000Y-82780000D01*
X45650000Y-97400000D02*
X48780000Y-97400000D01*
X45650000Y-100560000D02*
X48780000Y-100560000D01*
X48780000Y-82470000D02*
X48780000Y-82780000D01*
X48780000Y-97400000D02*
X48780000Y-100560000D01*
X55949233Y-82204149D02*
X55949233Y-82365687D01*
X55950233Y-80837610D02*
X57600233Y-80546671D01*
X55950233Y-90189106D02*
X55950233Y-80837610D01*
X55950233Y-90189106D02*
X56027797Y-90266670D01*
X56027797Y-90266670D02*
X66032670Y-90266670D01*
X56231636Y-97758217D02*
X56681636Y-97758217D01*
X56231636Y-99508217D02*
X56231636Y-97758217D01*
X56681636Y-99508217D02*
X56231636Y-99508217D01*
X56681636Y-99783217D02*
X56681636Y-97483217D01*
X56781636Y-97383217D02*
X60381636Y-97383217D01*
X57210233Y-94896670D02*
X57210233Y-90266670D01*
X57210233Y-94896670D02*
X58050233Y-94896670D01*
X57600233Y-80546671D02*
X64460233Y-80546671D01*
X58050233Y-94896670D02*
X58050233Y-90266670D01*
X58910233Y-94896670D02*
X58910233Y-90266670D01*
X58910233Y-94896670D02*
X59750233Y-94896670D01*
X59611358Y-97483217D02*
X59611358Y-99783217D01*
X59750233Y-94896670D02*
X59750233Y-90266670D01*
X60381636Y-99883217D02*
X56781636Y-99883217D01*
X60481636Y-97483217D02*
X60481636Y-99783217D01*
X60481636Y-97758217D02*
X60931636Y-97758217D01*
X60482636Y-97994696D02*
X60482636Y-97900144D01*
X60610233Y-94896670D02*
X60610233Y-90266670D01*
X60610233Y-94896670D02*
X61450233Y-94896670D01*
X60931636Y-97758217D02*
X60931636Y-99508217D01*
X60931636Y-99508217D02*
X60481636Y-99508217D01*
X61450233Y-94896670D02*
X61450233Y-90266670D01*
X62310233Y-94896670D02*
X62310233Y-90266670D01*
X62310233Y-94896670D02*
X63150233Y-94896670D01*
X63150233Y-94896670D02*
X63150233Y-90266670D01*
X64010233Y-94896670D02*
X64010233Y-90266670D01*
X64010233Y-94896670D02*
X64850233Y-94896670D01*
X64460233Y-80546671D02*
X66110233Y-80837610D01*
X64850233Y-94896670D02*
X64850233Y-90266670D01*
X66032670Y-90266670D02*
X66110233Y-90189106D01*
X66110233Y-81626670D02*
X55950233Y-81626670D01*
X66110233Y-90189106D02*
X66110233Y-80837610D01*
X67667397Y-88785796D02*
X67667397Y-98485796D01*
X69167397Y-99985796D02*
X78867397Y-99985796D01*
X70499783Y-84782294D02*
X70499783Y-79882295D01*
X70549783Y-79832295D02*
X80449783Y-79832295D01*
X71536385Y-81150900D02*
X71560553Y-81182295D01*
X71548594Y-81207294D02*
X71524147Y-81202062D01*
X71548594Y-81207294D02*
X71555764Y-81176075D01*
X71548594Y-81207294D02*
X71560553Y-81182295D01*
X71560553Y-81682294D02*
X73639014Y-81682294D01*
X73639014Y-81182295D02*
X71560553Y-81182295D01*
X78867397Y-87285796D02*
X69167397Y-87285796D01*
X79058978Y-79831295D02*
X79014106Y-79831295D01*
X79142312Y-79831295D02*
X79108357Y-79831295D01*
X80367397Y-98485796D02*
X80367397Y-88785796D01*
X80449783Y-84832294D02*
X70549783Y-84832294D01*
X80499783Y-79882295D02*
X80499783Y-84782294D01*
X83848681Y-80900296D02*
X84648681Y-80900296D01*
X83848681Y-82180295D02*
X83848681Y-80580296D01*
X84648681Y-80580296D02*
X83848681Y-80580296D01*
X84648681Y-80580296D02*
X84648681Y-82180295D01*
X84648681Y-81860295D02*
X83848681Y-81860295D01*
X84648681Y-82180295D02*
X83848681Y-82180295D01*
X86260000Y-79620000D02*
X89375000Y-79620000D01*
X86260000Y-82780000D02*
X86260000Y-79620000D01*
X86260000Y-82780000D02*
X89420000Y-82780000D01*
X86260000Y-97400000D02*
X89375000Y-97400000D01*
X86260000Y-100560000D02*
X86260000Y-97400000D01*
X86260000Y-100560000D02*
X89375000Y-100560000D01*
X89395000Y-79365000D02*
X45645000Y-79365000D01*
X89395000Y-100815000D02*
X89395000Y-79365000D01*
X56681636Y-97483217D02*
G75*
G02*
X56781636Y-97383236I99964J17D01*
G01*
X56781636Y-99883217D02*
G75*
G02*
X56681583Y-99783217I-36J100017D01*
G01*
X60381636Y-97383217D02*
G75*
G02*
X60481583Y-97483217I-36J-99983D01*
G01*
X60481636Y-99783217D02*
G75*
G02*
X60381636Y-99883236I-100036J17D01*
G01*
X67667397Y-88785796D02*
G75*
G02*
X69167397Y-87285797I1500003J-4D01*
G01*
X68981131Y-90666010D02*
G75*
G02*
X69015249Y-90800200I-52931J-84890D01*
G01*
X68981132Y-90666011D02*
G75*
G02*
X71047611Y-88599531I793628J1272851D01*
G01*
X69015217Y-96471409D02*
G75*
G02*
X68981118Y-96605560I-87017J-49291D01*
G01*
X69015218Y-96471410D02*
G75*
G02*
X69015221Y-90800185I5002182J2835610D01*
G01*
X69167397Y-99985796D02*
G75*
G02*
X67667404Y-98485796I3J1499996D01*
G01*
X70499783Y-79882295D02*
G75*
G02*
X70549783Y-79832283I50017J-5D01*
G01*
X70549783Y-84832294D02*
G75*
G02*
X70499806Y-84782294I17J49994D01*
G01*
X71047611Y-98672062D02*
G75*
G02*
X68981137Y-96605590I-1272811J793662D01*
G01*
X71047611Y-98672062D02*
G75*
G02*
X71181799Y-98637947I84889J-52938D01*
G01*
X71181783Y-88633617D02*
G75*
G02*
X71047641Y-88599512I-49283J87017D01*
G01*
X71181784Y-88633617D02*
G75*
G02*
X76853011Y-88633617I2835614J-5002178D01*
G01*
X71524148Y-81662527D02*
G75*
G02*
X71536385Y-81713690I1075652J230227D01*
G01*
X76853011Y-98637976D02*
G75*
G02*
X71181783Y-98637976I-2835614J5002180D01*
G01*
X76853011Y-98637976D02*
G75*
G02*
X76987162Y-98672075I49289J-87024D01*
G01*
X76987183Y-88599531D02*
G75*
G02*
X76852998Y-88633641I-84883J52931D01*
G01*
X76987183Y-88599531D02*
G75*
G02*
X79053667Y-90666018I1272817J-793669D01*
G01*
X78867397Y-87285796D02*
G75*
G02*
X80367404Y-88785796I3J-1500004D01*
G01*
X79019576Y-90800183D02*
G75*
G02*
X79019579Y-96471412I-5002176J-2835617D01*
G01*
X79019577Y-90800184D02*
G75*
G02*
X79053680Y-90666039I87023J49284D01*
G01*
X79053662Y-96605582D02*
G75*
G02*
X76987182Y-98672062I-793622J-1272858D01*
G01*
X79053663Y-96605583D02*
G75*
G02*
X79019555Y-96471398I52937J84883D01*
G01*
X80367397Y-98485796D02*
G75*
G02*
X78867397Y-99985797I-1499997J-4D01*
G01*
X80449783Y-79832295D02*
G75*
G02*
X80499805Y-79882295I17J-50005D01*
G01*
X80499783Y-84782294D02*
G75*
G02*
X80449783Y-84832283I-49983J-6D01*
G01*
X53846666Y-90157418D02*
G75*
G02*
X45846666Y-90157418I-4000000J0D01*
G01*
X45846666Y-90157418D02*
G75*
G02*
X53846666Y-90157418I4000000J0D01*
G01*
X53878999Y-81835000D02*
G75*
G02*
X50681001Y-81835000I-1598999J0D01*
G01*
X50681001Y-81835000D02*
G75*
G02*
X53878999Y-81835000I1598999J0D01*
G01*
X57248179Y-89354594D02*
G75*
G02*
X56498179Y-89354594I-375000J0D01*
G01*
X56498179Y-89354594D02*
G75*
G02*
X57248179Y-89354594I375000J0D01*
G01*
X79267397Y-93635796D02*
G75*
G02*
X68767397Y-93635796I-5250000J0D01*
G01*
X68767397Y-93635796D02*
G75*
G02*
X79267397Y-93635796I5250000J0D01*
G01*
X84359000Y-98345000D02*
G75*
G02*
X81161000Y-98345000I-1599000J0D01*
G01*
X81161000Y-98345000D02*
G75*
G02*
X84359000Y-98345000I1599000J0D01*
G01*
X89229307Y-90655206D02*
G75*
G02*
X81229307Y-90655206I-4000000J0D01*
G01*
X81229307Y-90655206D02*
G75*
G02*
X89229307Y-90655206I4000000J0D01*
G01*
D12*
%TO.C,J1*%
X21500000Y-112540000D02*
X21500000Y-105240000D01*
X21890000Y-104850000D02*
X30750000Y-104850000D01*
X30750000Y-113150000D02*
X22110000Y-113150000D01*
X31000000Y-106000000D02*
X31000000Y-112000000D01*
X40600000Y-107000000D02*
X40600000Y-108000000D01*
X40600000Y-110000000D02*
X40600000Y-111000000D01*
X40600000Y-111000000D02*
X41000000Y-111000000D01*
X41000000Y-104000000D02*
X33000000Y-104000000D01*
X41000000Y-104000000D02*
X41000000Y-107000000D01*
X41000000Y-107000000D02*
X40600000Y-107000000D01*
X41000000Y-111000000D02*
X41000000Y-114000000D01*
X41000000Y-114000000D02*
X33000000Y-114000000D01*
X21500000Y-105240000D02*
G75*
G02*
X21890000Y-104850000I390000J0D01*
G01*
X22110000Y-113150000D02*
G75*
G02*
X21500000Y-112540000I0J610000D01*
G01*
D13*
X35090000Y-103487000D02*
G75*
G02*
X34890000Y-103487000I-100000J0D01*
G01*
X34890000Y-103487000D02*
G75*
G02*
X35090000Y-103487000I100000J0D01*
G01*
D12*
%TO.C,J3*%
X21500000Y-142540000D02*
X21500000Y-135240000D01*
X21890000Y-134850000D02*
X30750000Y-134850000D01*
X30750000Y-143150000D02*
X22110000Y-143150000D01*
X31000000Y-136000000D02*
X31000000Y-142000000D01*
X40600000Y-137000000D02*
X40600000Y-138000000D01*
X40600000Y-140000000D02*
X40600000Y-141000000D01*
X40600000Y-141000000D02*
X41000000Y-141000000D01*
X41000000Y-134000000D02*
X33000000Y-134000000D01*
X41000000Y-134000000D02*
X41000000Y-137000000D01*
X41000000Y-137000000D02*
X40600000Y-137000000D01*
X41000000Y-141000000D02*
X41000000Y-144000000D01*
X41000000Y-144000000D02*
X33000000Y-144000000D01*
X21500000Y-135240000D02*
G75*
G02*
X21890000Y-134850000I390000J0D01*
G01*
X22110000Y-143150000D02*
G75*
G02*
X21500000Y-142540000I0J610000D01*
G01*
D13*
X35090000Y-133487000D02*
G75*
G02*
X34890000Y-133487000I-100000J0D01*
G01*
X34890000Y-133487000D02*
G75*
G02*
X35090000Y-133487000I100000J0D01*
G01*
D11*
%TO.C,R9*%
X93000000Y-122760000D02*
X93000000Y-123530000D01*
X93000000Y-130840000D02*
X93000000Y-130070000D01*
X91630000Y-130070000D02*
X94370000Y-130070000D01*
X94370000Y-123530000D01*
X91630000Y-123530000D01*
X91630000Y-130070000D01*
%TO.C,R2*%
X45960000Y-128800000D02*
X46730000Y-128800000D01*
X54040000Y-128800000D02*
X53270000Y-128800000D01*
X46730000Y-127430000D02*
X53270000Y-127430000D01*
X53270000Y-130170000D01*
X46730000Y-130170000D01*
X46730000Y-127430000D01*
%TO.C,R11*%
X83600000Y-122760000D02*
X83600000Y-123530000D01*
X83600000Y-130840000D02*
X83600000Y-130070000D01*
X82230000Y-130070000D02*
X84970000Y-130070000D01*
X84970000Y-123530000D01*
X82230000Y-123530000D01*
X82230000Y-130070000D01*
%TO.C,R12*%
X92500000Y-100160000D02*
X92500000Y-100930000D01*
X92500000Y-108240000D02*
X92500000Y-107470000D01*
X91130000Y-107470000D02*
X93870000Y-107470000D01*
X93870000Y-100930000D01*
X91130000Y-100930000D01*
X91130000Y-107470000D01*
D12*
%TO.C,J5*%
X92000000Y-79200000D02*
X102000000Y-79200000D01*
X92000000Y-86700000D02*
X92000000Y-79200000D01*
X102000000Y-79200000D02*
X102000000Y-86700000D01*
X102000000Y-86700000D02*
X92000000Y-86700000D01*
D13*
X102700000Y-82700000D02*
G75*
G02*
X102500000Y-82700000I-100000J0D01*
G01*
X102500000Y-82700000D02*
G75*
G02*
X102700000Y-82700000I100000J0D01*
G01*
D11*
%TO.C,R10*%
X100600000Y-90140000D02*
X100600000Y-90910000D01*
X100600000Y-98220000D02*
X100600000Y-97450000D01*
X101970000Y-90910000D02*
X99230000Y-90910000D01*
X99230000Y-97450000D01*
X101970000Y-97450000D01*
X101970000Y-90910000D01*
%TD*%
%LPC*%
D14*
%TO.C,R7*%
X89200000Y-108900000D03*
X79040000Y-108900000D03*
%TD*%
D15*
%TO.C,H3*%
X60600000Y-143800000D03*
%TD*%
D14*
%TO.C,R3*%
X63100000Y-122700000D03*
X63100000Y-112540000D03*
%TD*%
D16*
%TO.C,J4*%
X37000000Y-81600000D03*
D17*
X37000000Y-86600000D03*
%TD*%
D18*
%TO.C,J2*%
X35000000Y-124000000D03*
D19*
X39500000Y-124000000D03*
%TD*%
D16*
%TO.C,J6*%
X37000000Y-91600000D03*
D17*
X37000000Y-96600000D03*
%TD*%
D20*
%TO.C,U5*%
X100570000Y-105050000D03*
X98030000Y-105050000D03*
X98030000Y-110550000D03*
X100570000Y-110550000D03*
%TD*%
D21*
%TO.C,SW1*%
X78900000Y-143700000D03*
D17*
X83900000Y-143700000D03*
%TD*%
D14*
%TO.C,R1*%
X45020000Y-104600000D03*
X55180000Y-104600000D03*
%TD*%
%TO.C,R5*%
X45120000Y-110700000D03*
X55280000Y-110700000D03*
%TD*%
%TO.C,R8*%
X88300000Y-131880000D03*
X88300000Y-121720000D03*
%TD*%
%TO.C,R4*%
X50000000Y-144000000D03*
X50000000Y-133840000D03*
%TD*%
D22*
%TO.C,U3*%
X92530000Y-96350000D03*
X95070000Y-96350000D03*
X95070000Y-90850000D03*
X92530000Y-90850000D03*
%TD*%
D23*
%TO.C,U1*%
X56000000Y-115100000D03*
X56000000Y-116050000D03*
X56000000Y-117000000D03*
X58700000Y-117000000D03*
X58700000Y-116050000D03*
X58700000Y-115100000D03*
%TD*%
D21*
%TO.C,SW5*%
X68900000Y-143700000D03*
D17*
X73900000Y-143700000D03*
%TD*%
D24*
%TO.C,JP1*%
X45100000Y-144000000D03*
X45100000Y-141460000D03*
%TD*%
D14*
%TO.C,R6*%
X44820000Y-122500000D03*
X54980000Y-122500000D03*
%TD*%
D25*
%TO.C,U2*%
X74810000Y-137045000D03*
D26*
X77350000Y-137045000D03*
X79890000Y-137045000D03*
X82430000Y-137045000D03*
X84970000Y-137045000D03*
X87510000Y-137045000D03*
X90050000Y-137045000D03*
X92590000Y-137045000D03*
X92590000Y-114185000D03*
X90050000Y-114185000D03*
X87510000Y-114185000D03*
X84970000Y-114185000D03*
X82430000Y-114185000D03*
X79890000Y-114185000D03*
X77350000Y-114185000D03*
X74810000Y-114185000D03*
%TD*%
D27*
%TO.C,U4*%
X47200000Y-81200000D03*
D28*
X47200000Y-98980000D03*
X87840000Y-98980000D03*
X87840000Y-81200000D03*
%TD*%
D15*
%TO.C,H2*%
X60600000Y-105900000D03*
%TD*%
D18*
%TO.C,J1*%
X35000000Y-109000000D03*
D19*
X39500000Y-109000000D03*
%TD*%
D15*
%TO.C,H1*%
X99200000Y-143800000D03*
%TD*%
D18*
%TO.C,J3*%
X35000000Y-139000000D03*
D19*
X39500000Y-139000000D03*
%TD*%
D14*
%TO.C,R9*%
X93000000Y-131880000D03*
X93000000Y-121720000D03*
%TD*%
%TO.C,R2*%
X44920000Y-128800000D03*
X55080000Y-128800000D03*
%TD*%
%TO.C,R11*%
X83600000Y-131880000D03*
X83600000Y-121720000D03*
%TD*%
%TO.C,R12*%
X92500000Y-109280000D03*
X92500000Y-99120000D03*
%TD*%
D29*
%TO.C,J5*%
X99500000Y-82700000D03*
D17*
X94500000Y-82700000D03*
%TD*%
D14*
%TO.C,R10*%
X100600000Y-89100000D03*
X100600000Y-99260000D03*
%TD*%
%LPD*%
M02*
