%TF.GenerationSoftware,KiCad,Pcbnew,9.0.2*%
%TF.CreationDate,2025-07-13T19:28:41+02:00*%
%TF.ProjectId,AHD-Switch,4148442d-5377-4697-9463-682e6b696361,rev?*%
%TF.SameCoordinates,Original*%
%TF.FileFunction,Legend,Bot*%
%TF.FilePolarity,Positive*%
%FSLAX46Y46*%
G04 Gerber Fmt 4.6, Leading zero omitted, Abs format (unit mm)*
G04 Created by KiCad (PCBNEW 9.0.2) date 2025-07-13 19:28:41*
%MOMM*%
%LPD*%
G01*
G04 APERTURE LIST*
G04 Aperture macros list*
%AMRoundRect*
0 Rectangle with rounded corners*
0 $1 Rounding radius*
0 $2 $3 $4 $5 $6 $7 $8 $9 X,Y pos of 4 corners*
0 Add a 4 corners polygon primitive as box body*
4,1,4,$2,$3,$4,$5,$6,$7,$8,$9,$2,$3,0*
0 Add four circle primitives for the rounded corners*
1,1,$1+$1,$2,$3*
1,1,$1+$1,$4,$5*
1,1,$1+$1,$6,$7*
1,1,$1+$1,$8,$9*
0 Add four rect primitives between the rounded corners*
20,1,$1+$1,$2,$3,$4,$5,0*
20,1,$1+$1,$4,$5,$6,$7,0*
20,1,$1+$1,$6,$7,$8,$9,0*
20,1,$1+$1,$8,$9,$2,$3,0*%
G04 Aperture macros list end*
%ADD10C,1.600000*%
%ADD11C,3.200000*%
%ADD12RoundRect,0.102000X-1.050000X1.050000X-1.050000X-1.050000X1.050000X-1.050000X1.050000X1.050000X0*%
%ADD13C,2.304000*%
%ADD14O,2.604000X5.004000*%
%ADD15O,3.604000X1.904000*%
%ADD16RoundRect,0.102000X-1.050000X-1.050000X1.050000X-1.050000X1.050000X1.050000X-1.050000X1.050000X0*%
%ADD17C,1.400000*%
%ADD18R,2.000000X2.000000*%
%ADD19O,1.600000X2.000000*%
%ADD20R,2.540000X2.540000*%
%ADD21C,2.540000*%
%ADD22RoundRect,0.102000X1.050000X1.050000X-1.050000X1.050000X-1.050000X-1.050000X1.050000X-1.050000X0*%
G04 APERTURE END LIST*
%LPC*%
D10*
%TO.C,R7*%
X89200000Y-108900000D03*
X79040000Y-108900000D03*
%TD*%
D11*
%TO.C,H3*%
X60600000Y-143800000D03*
%TD*%
D10*
%TO.C,R3*%
X63100000Y-122700000D03*
X63100000Y-112540000D03*
%TD*%
D12*
%TO.C,J4*%
X37000000Y-81600000D03*
D13*
X37000000Y-86600000D03*
%TD*%
D14*
%TO.C,J2*%
X35000000Y-124000000D03*
D15*
X39500000Y-124000000D03*
%TD*%
D12*
%TO.C,J6*%
X37000000Y-91600000D03*
D13*
X37000000Y-96600000D03*
%TD*%
D16*
%TO.C,SW1*%
X78900000Y-143700000D03*
D13*
X83900000Y-143700000D03*
%TD*%
D10*
%TO.C,R1*%
X45020000Y-104600000D03*
X55180000Y-104600000D03*
%TD*%
%TO.C,R5*%
X45120000Y-110700000D03*
X55280000Y-110700000D03*
%TD*%
%TO.C,R8*%
X88300000Y-131880000D03*
X88300000Y-121720000D03*
%TD*%
%TO.C,R4*%
X50000000Y-144000000D03*
X50000000Y-133840000D03*
%TD*%
D16*
%TO.C,SW5*%
X68900000Y-143700000D03*
D13*
X73900000Y-143700000D03*
%TD*%
D17*
%TO.C,JP1*%
X45100000Y-144000000D03*
X45100000Y-141460000D03*
%TD*%
D10*
%TO.C,R6*%
X44820000Y-122500000D03*
X54980000Y-122500000D03*
%TD*%
D18*
%TO.C,U2*%
X74810000Y-137045000D03*
D19*
X77350000Y-137045000D03*
X79890000Y-137045000D03*
X82430000Y-137045000D03*
X84970000Y-137045000D03*
X87510000Y-137045000D03*
X90050000Y-137045000D03*
X92590000Y-137045000D03*
X92590000Y-114185000D03*
X90050000Y-114185000D03*
X87510000Y-114185000D03*
X84970000Y-114185000D03*
X82430000Y-114185000D03*
X79890000Y-114185000D03*
X77350000Y-114185000D03*
X74810000Y-114185000D03*
%TD*%
D20*
%TO.C,U4*%
X47200000Y-81200000D03*
D21*
X47200000Y-98980000D03*
X87840000Y-98980000D03*
X87840000Y-81200000D03*
%TD*%
D11*
%TO.C,H2*%
X60600000Y-105900000D03*
%TD*%
D14*
%TO.C,J1*%
X35000000Y-109000000D03*
D15*
X39500000Y-109000000D03*
%TD*%
D11*
%TO.C,H1*%
X99200000Y-143800000D03*
%TD*%
D14*
%TO.C,J3*%
X35000000Y-139000000D03*
D15*
X39500000Y-139000000D03*
%TD*%
D10*
%TO.C,R9*%
X93000000Y-131880000D03*
X93000000Y-121720000D03*
%TD*%
%TO.C,R2*%
X44920000Y-128800000D03*
X55080000Y-128800000D03*
%TD*%
%TO.C,R11*%
X83600000Y-131880000D03*
X83600000Y-121720000D03*
%TD*%
%TO.C,R12*%
X92500000Y-109280000D03*
X92500000Y-99120000D03*
%TD*%
D22*
%TO.C,J5*%
X99500000Y-82700000D03*
D13*
X94500000Y-82700000D03*
%TD*%
D10*
%TO.C,R10*%
X100600000Y-89100000D03*
X100600000Y-99260000D03*
%TD*%
%LPD*%
M02*
