M48
; DRILL file {KiCad 9.0.2} date 2025-07-13T19:28:41+0200
; FORMAT={-:-/ absolute / inch / decimal}
; #@! TF.CreationDate,2025-07-13T19:28:41+02:00
; #@! TF.GenerationSoftware,Kicad,Pcbnew,9.0.2
; #@! TF.FileFunction,Plated,1,2,PTH
FMAT,2
INCH
; #@! TA.AperFunction,Plated,PTH,ViaDrill
T1C0.0118
; #@! TA.AperFunction,Plated,PTH,ComponentDrill
T2C0.0315
; #@! TA.AperFunction,Plated,PTH,ComponentDrill
T3C0.0354
; #@! TA.AperFunction,Plated,PTH,ComponentDrill
T4C0.0394
; #@! TA.AperFunction,Plated,PTH,ComponentDrill
T5C0.0512
; #@! TA.AperFunction,Plated,PTH,ComponentDrill
T6C0.0551
%
G90
G05
T1
X3.7429Y-4.0157
T2
X1.7646Y-4.8228
X1.7685Y-5.0709
X1.7724Y-4.1181
X1.7756Y-5.5693
X1.7756Y-5.6693
X1.7764Y-4.3583
X1.9685Y-5.2693
X1.9685Y-5.6693
X2.1646Y-4.8228
X2.1685Y-5.0709
X2.1724Y-4.1181
X2.1764Y-4.3583
X2.4843Y-4.4307
X2.4843Y-4.8307
X3.1118Y-4.2874
X3.2913Y-4.7921
X3.2913Y-5.1921
X3.4764Y-4.7921
X3.4764Y-5.1921
X3.5118Y-4.2874
X3.6417Y-3.9024
X3.6417Y-4.3024
X3.6614Y-4.7921
X3.6614Y-5.1921
X3.9606Y-3.5079
X3.9606Y-3.9079
T3
X2.9453Y-4.4955
X2.9453Y-5.3955
X3.0453Y-4.4955
X3.0453Y-5.3955
X3.1453Y-4.4955
X3.1453Y-5.3955
X3.2453Y-4.4955
X3.2453Y-5.3955
X3.3453Y-4.4955
X3.3453Y-5.3955
X3.4453Y-4.4955
X3.4453Y-5.3955
X3.5453Y-4.4955
X3.5453Y-5.3955
X3.6453Y-4.4955
X3.6453Y-5.3955
T4
X1.8583Y-3.1969
X1.8583Y-3.8969
X3.4583Y-3.1969
X3.4583Y-3.8969
T6
X1.4567Y-3.2126
X1.4567Y-3.4094
X1.4567Y-3.6063
X1.4567Y-3.8031
X2.7126Y-5.6575
X2.9094Y-5.6575
X3.1063Y-5.6575
X3.3031Y-5.6575
X3.7205Y-3.2559
X3.9173Y-3.2559
T4
G00X1.5807Y-4.2913
M15
G01X1.5295Y-4.2913
M16
G05
G00X1.5807Y-4.8819
M15
G01X1.5295Y-4.8819
M16
G05
G00X1.5807Y-5.4724
M15
G01X1.5295Y-5.4724
M16
G05
T5
G00X1.378Y-4.3327
M15
G01X1.378Y-4.25
M16
G05
G00X1.378Y-4.9232
M15
G01X1.378Y-4.8406
M16
G05
G00X1.378Y-5.5138
M15
G01X1.378Y-5.4311
M16
G05
M30
